<?xml version="1.0" encoding="utf-8"?>
<!-- Generator: Adobe Illustrator 28.0.0, SVG Export Plug-In . SVG Version: 6.00 Build 0)  -->
<svg version="1.1" id="Слой_1" xmlns="http://www.w3.org/2000/svg" xmlns:xlink="http://www.w3.org/1999/xlink" x="0px" y="0px"
	 viewBox="0 0 2000 2000" style="enable-background:new 0 0 2000 2000;" xml:space="preserve">
<style type="text/css">
	.st0{fill:#040404;}
</style>
<g>
	<path class="st0" d="M0.08,977c12.49,0.07,24.99,0.56,37.46,0.05c8.07-0.33,13.78,3.11,18.56,8.75c1.82,2.14,3.54,3.07,6.31,2.97
		c4.99-0.19,10-0.13,14.99-0.01c6.09,0.16,11.97,0.85,15.71-6.08c1.78-3.3,6.14-4.41,10.1-4.67c19.8-1.32,39.64-0.85,59.45-0.66
		c5.76,0.06,9.93,4.43,13.47,8.67c1.69,2.03,3.32,2.8,5.88,2.75c7-0.14,14-0.14,20.99,0.04c2.6,0.07,4.24-0.57,5.63-2.96
		c2.87-4.95,7.5-7.46,13.17-7.84c19.64-1.32,39.3-0.81,58.95-0.66c5.8,0.04,10,4.32,13.51,8.58c1.84,2.23,3.66,2.95,6.35,2.85
		c4.16-0.16,8.33-0.13,12.49,0c6.1,0.2,11.95,0.79,15.71-6.05c1.82-3.3,6.14-4.43,10.09-4.69c19.8-1.32,39.64-0.86,59.45-0.66
		c5.76,0.06,9.95,4.41,13.48,8.66c1.69,2.04,3.32,2.81,5.88,2.76c7-0.14,14-0.12,20.99,0.04c2.57,0.06,4.22-0.53,5.63-2.95
		c2.87-4.93,7.48-7.47,13.17-7.85c19.64-1.31,39.3-0.81,58.95-0.66c5.79,0.05,9.95,4.34,13.53,8.54c1.66,1.95,3.19,2.95,5.83,2.9
		c7.66-0.16,15.33-0.12,22.99,0.02c2.42,0.05,3.95-0.56,5.24-2.77c3.09-5.3,8.01-7.75,14.07-8.12c19.31-1.16,38.64-0.7,57.96-0.61
		c5.89,0.03,10.05,4.26,13.59,8.43c1.98,2.33,3.88,3.1,6.76,3.03c6.66-0.16,13.33-0.11,19.99,0.02c2.68,0.05,4.57-0.36,6.1-3.04
		c2.82-4.97,7.54-7.37,13.2-7.77c19.63-1.39,39.3-1.03,58.94-0.82c5.82,0.06,9.93,4.36,13.51,8.54c1.71,2,3.37,2.75,5.92,2.69
		c6.49-0.15,13-0.11,19.49,0.03c2.53,0.06,4.26-0.39,5.71-2.84c2.92-4.92,7.66-7.23,13.3-7.67c20.47-1.62,40.97-0.82,61.45-0.67
		c6.01,0.04,10.25,4.44,13.99,8.74c1.47,1.69,2.84,2.43,5.04,2.39c6.5-0.11,13-0.09,19.49,0.05c2.25,0.05,3.62-0.61,4.81-2.63
		c2.81-4.76,7.26-7.32,12.7-7.79c20.79-1.8,41.63-0.9,62.44-0.76c5.63,0.04,9.78,4.12,13.24,8.16c2,2.33,3.94,3.09,6.81,2.97
		c4.16-0.18,8.33-0.06,12.49-0.01c5.71,0.07,11.07,0.8,14.94-5.7c2.96-4.97,9.43-5.22,14.97-5.29c18.16-0.22,36.32-0.37,54.48-0.27
		c6.15,0.03,10.3,4.35,14.05,8.56c1.76,1.98,3.36,2.76,5.89,2.71c7-0.13,14-0.01,20.99-0.01c1.62,0,3.36,0.39,4.38-1.53
		c3.84-7.26,10.53-9.36,18.02-9.46c18.33-0.23,36.65-0.38,54.98-0.27c6.13,0.04,10.29,4.37,14.02,8.59
		c1.76,1.98,3.38,2.76,5.92,2.67c4.49-0.16,9-0.14,13.49,0.01c5.65,0.2,10.95,0.64,14.43-5.67c1.81-3.29,6.13-4.42,10.08-4.75
		c20.96-1.75,41.96-0.54,62.94-0.59c5.5-0.01,9.67,4.32,13.05,8.46c1.82,2.24,3.6,3.01,6.31,2.92c4.66-0.16,9.33-0.14,13.99,0.01
		c5.79,0.18,11.18,0.65,14.83-5.79c2.14-3.78,6.95-4.8,11.47-5.07c19.31-1.14,38.64-0.69,57.96-0.6c5.88,0.03,10.05,4.23,13.59,8.42
		c1.97,2.34,3.87,3.19,6.77,3.04c3.82-0.2,7.67-0.16,11.49-0.01c6.13,0.25,11.86,0.66,15.71-6.08c2.05-3.58,6.76-4.51,11.09-4.77
		c19.31-1.15,38.64-0.7,57.96-0.6c6.08,0.03,10.28,4.42,13.96,8.73c1.73,2.02,3.35,2.77,5.9,2.72c7-0.13,14-0.13,20.99,0.04
		c2.6,0.06,4.23-0.6,5.62-2.99c2.88-4.95,7.51-7.44,13.18-7.82c19.64-1.31,39.3-0.79,58.95-0.67c5.64,0.03,9.76,4.17,13.17,8.23
		c2.09,2.48,4.11,3.3,7.18,3.23c7.33-0.18,14.66-0.13,21.99,0.03c2.45,0.05,3.92-0.65,5.21-2.83c3.13-5.27,8.03-7.72,14.1-8.07
		c19.31-1.14,38.64-0.68,57.96-0.6c5.69,0.02,9.86,4.04,13.23,8.11c2.23,2.69,4.43,3.48,7.63,3.35c4.49-0.19,9.01-0.22,13.49,0.02
		c5.73,0.31,10.8,0.38,14.35-5.76c2.18-3.76,6.94-4.85,11.45-5.12c19.31-1.15,38.64-0.71,57.96-0.6c6.06,0.03,10.28,4.41,13.96,8.73
		c1.71,2.01,3.34,2.78,5.89,2.73c6.83-0.15,13.67-0.14,20.49,0.04c2.46,0.06,3.92-0.69,5.22-2.82c3.4-5.57,8.56-8.17,15.09-7.98
		c0,14.67,0,29.33,0,44c-5.23-0.4-8.98-3.31-11.61-7.52c-1.63-2.62-3.53-3.41-6.5-3.34c-7.83,0.2-15.66,0.17-23.49,0.01
		c-2.74-0.05-4.74,0.48-6.19,3.05c-3.75,6.65-9.49,8.85-17.12,8.71c-14.48-0.26-28.98-0.58-43.47,0.28
		c-9.07,0.54-16.87-1.82-21.76-10.21c-1.03-1.77-2.56-1.8-4.28-1.79c-8.66,0.03-17.33,0.12-25.99-0.05
		c-2.68-0.05-4.31,0.83-5.64,3.11c-3.71,6.34-9.16,8.81-16.66,8.67c-14.48-0.27-28.98-0.6-43.47,0.27
		c-9.23,0.55-17.25-1.63-22.24-10.24c-1.04-1.8-2.6-1.76-4.29-1.75c-9.33,0.02-18.66,0.08-27.99-0.04
		c-2.28-0.03-3.72,0.71-4.85,2.67c-3.98,6.94-9.92,9.29-17.96,9.1c-14.31-0.35-28.65-0.58-42.97,0.26
		c-8.85,0.52-16.58-1.66-21.47-9.81c-1.13-1.88-2.59-2.22-4.57-2.21c-8.83,0.07-17.66,0.11-26.49-0.02
		c-2.32-0.03-3.73,0.78-4.83,2.7c-3.99,6.96-9.93,9.26-17.97,9.07c-14.31-0.34-28.65-0.58-42.97,0.26
		c-8.85,0.52-16.56-1.69-21.46-9.83c-0.96-1.6-2.17-2.21-4.07-2.19c-8.5,0.09-17,0.12-25.49-0.02c-2.35-0.04-3.68,0.92-4.78,2.8
		c-3.92,6.7-9.64,9.16-17.53,8.98c-14.48-0.33-28.98-0.58-43.47,0.27c-8.87,0.52-16.57-1.76-21.4-9.94
		c-1.14-1.93-2.72-2.09-4.64-2.08c-8.66,0.05-17.33,0.11-25.99-0.03c-2.45-0.04-4.05,0.67-5.28,2.82
		c-3.87,6.77-9.67,9.08-17.52,8.96c-15.14-0.23-30.3-0.57-45.46,0.5c-9,0.64-17.34-1.45-22.47-10c-1.04-1.73-2.49-1.91-4.23-1.9
		c-8.5,0.04-17,0.1-25.49-0.03c-2.32-0.03-3.68,0.83-4.81,2.74c-3.83,6.47-9.38,9-17.07,8.87c-14.98-0.24-29.97-0.59-44.96,0.39
		c-8.41,0.55-15.86-2.02-20.64-9.62c-1.14-1.81-2.44-2.39-4.48-2.37c-8.66,0.08-17.33,0.12-25.99-0.02
		c-2.48-0.04-3.97,0.81-5.23,2.9c-3.76,6.24-9.14,8.82-16.66,8.72c-14.98-0.2-29.97-0.62-44.96,0.39
		c-8.59,0.58-16.22-1.92-21.04-9.78c-1.15-1.87-2.6-2.22-4.56-2.2c-8.33,0.07-16.66,0.12-24.99-0.03c-2.48-0.04-4.05,0.78-5.28,2.87
		c-3.73,6.38-9.3,8.78-16.7,8.72c-15.48-0.11-30.97-0.48-46.47,0.38c-8.82,0.49-16.99-1.63-21.98-10.01
		c-1.04-1.74-2.49-1.93-4.23-1.92c-8,0.03-16,0.1-23.99-0.04c-2.33-0.04-3.7,0.88-4.81,2.77c-3.84,6.57-9.61,8.89-17.17,8.82
		c-15.32-0.14-30.64-0.49-45.97,0.37c-8.82,0.49-16.99-1.55-22.03-9.91c-1.01-1.68-2.37-2.03-4.17-2.02
		c-8.5,0.06-17,0.11-25.49-0.04c-2.37-0.04-3.7,0.99-4.79,2.82c-3.85,6.5-9.38,9-17.08,8.79c-14.81-0.4-29.65-0.06-44.47,0.17
		c-8.72,0.13-16.18-2.07-20.88-10.04c-1.15-1.95-2.76-2.04-4.66-2.03c-8.66,0.04-17.33,0.11-25.99-0.04
		c-2.47-0.04-4.03,0.73-5.25,2.86c-3.88,6.77-9.7,9.07-17.54,8.91c-14.48-0.3-28.98-0.57-43.47,0.28c-8.88,0.52-16.53-1.83-21.37-10
		c-0.99-1.68-2.35-2.04-4.17-2.02c-9.5,0.06-19,0.11-28.49-0.02c-2.37-0.03-3.67,0.97-4.76,2.85c-3.92,6.75-9.7,9.09-17.55,8.93
		c-14.48-0.31-28.98-0.56-43.47,0.27c-8.87,0.51-16.55-1.79-21.37-9.98c-0.99-1.69-2.35-2.05-4.15-2.04c-9,0.06-18,0.11-26.99-0.03
		c-2.38-0.04-3.64,1-4.73,2.87c-3.94,6.71-9.69,9.09-17.56,8.91c-14.48-0.33-28.98-0.57-43.47,0.27c-8.87,0.51-16.54-1.81-21.36-10
		c-1-1.69-2.37-2.03-4.17-2.02c-8.66,0.06-17.33,0.1-25.99-0.02c-2.31-0.03-3.7,0.78-4.82,2.72c-4,6.93-9.94,9.25-17.99,9.06
		c-14.31-0.35-28.65-0.58-42.97,0.27c-8.85,0.52-16.57-1.71-21.46-9.84c-0.99-1.65-2.21-2.2-4.07-2.18c-9,0.07-18,0.11-26.99-0.02
		c-2.33-0.03-3.71,0.84-4.81,2.75c-4.01,6.95-9.96,9.22-18,9.03c-14.31-0.35-28.65-0.58-42.97,0.26
		c-8.86,0.52-16.56-1.72-21.44-9.88c-0.98-1.64-2.24-2.16-4.1-2.14c-9.5,0.07-18.99,0.1-28.49-0.01c-2.3-0.03-3.7,0.78-4.83,2.72
		c-3.89,6.7-9.56,9.34-17.48,9.04c-12.63-0.48-25.3,0-37.95,0.08c0-8,0-16,0-24c3.07,0.04,2.89,2.78,3.65,4.6
		c0.96,2.29-1.18,4.18-1.51,6.33c9.67,0,19.05,0,28.75,0c-5.67-8.74,4.61-11.6,6.12-18.15c-12.22-3.42-24.68-1.45-37.01-1.77
		C0.08,985.67,0.08,981.34,0.08,977z M157.1,991.76c-14-3.55-28.03-1.27-42.03-1.82c1.84,7.25,10.58,11.65,5.14,20.09
		c10.28,0,20.24,0,30.61,0C145.19,1001.36,154.99,998.36,157.1,991.76z M1779.05,1009.92c10.25,0,20.25,0,30.6,0
		c-5.72-8.75,4.6-11.62,6.07-18.2c-13.84-3.55-27.82-1.12-41.89-1.88C1775.62,997.06,1784.3,1001.53,1779.05,1009.92z
		 M1305.94,1009.99c10.42,0,20.37,0,30.7,0c-5.73-8.73,4.33-11.71,6.15-18.24c-13.89-3.52-27.86-1.32-41.87-1.72
		C1302.57,997.06,1311.14,1001.39,1305.94,1009.99z M588.83,989.72c1.76,7.34,10.5,11.78,5.26,20.19c10.25,0,20.24,0,30.56,0
		c-5.55-8.7,4.48-11.68,6.17-18.14C617,988.1,603.05,990.72,588.83,989.72z M1425.9,1009.84c9.92,0,19.26,0,29.03,0
		c-2.86-4.13-2.17-7.45,1.03-10.55c1.42-1.38,2.42-3.17,3.75-4.65c1.88-2.1,1.18-3.03-1.3-3.53c-12.6-2.55-25.25-0.61-37.92-1.3
		C1422.41,996.98,1431.03,1001.37,1425.9,1009.84z M1690.04,1010.05c-3-4.29-2.36-7.63,0.85-10.73c1.3-1.26,2.2-2.92,3.45-4.26
		c2.18-2.34,1.74-3.49-1.4-4.07c-12.46-2.3-24.95-0.54-37.56-1.2c2.13,7.22,10.62,11.73,5.52,20.25
		C1670.68,1010.05,1679.98,1010.05,1690.04,1010.05z M1893.45,989.76c2.12,7.24,10.66,11.75,5.59,20.11c9.74,0,19.11,0,29.06,0
		c-3.34-4.37-2.05-7.77,1.19-10.91c0.95-0.92,1.58-2.16,2.51-3.09c2.9-2.93,2.49-4.41-1.74-5.09
		C1917.97,988.84,1905.85,990.48,1893.45,989.76z M475.85,1009.88c9.9,0,19.28,0,29.15,0c-3.01-4.08-2.25-7.42,0.88-10.52
		c1.17-1.16,2.03-2.64,3.16-3.86c2.36-2.54,2.32-3.96-1.52-4.62c-12.32-2.11-24.66-0.44-36.86-1.07
		C472.14,996.96,481.01,1001.26,475.85,1009.88z M269.08,1009.98c-5.71-8.72,4.37-11.63,6.18-18.26
		c-13.35-3.5-26.85-1.14-40.36-1.91c1.61,7.2,10.62,11.71,5.17,20.16C249.84,1009.98,259.25,1009.98,269.08,1009.98z M748.87,991.96
		c-13.44-3.66-26.93-1.05-40.37-2.19c2.14,7.33,11.02,11.54,5.84,20.13c9.57,0,18.71,0,28.21,0
		C737.34,1001.46,746.46,998.39,748.87,991.96z M386.57,1010.01c-2.73-4.45-1.93-7.95,1.41-11.08c1.08-1.01,1.79-2.39,2.82-3.47
		c2.55-2.68,1.97-3.96-1.63-4.59c-11.98-2.1-23.99-0.42-36.12-1.08c1.61,7.17,10.84,11.63,5.17,20.22
		C367.62,1010.01,376.72,1010.01,386.57,1010.01z M1187.87,1009.85c9.45,0,18.5,0,28.09,0c-3.17-4.47-1.78-7.99,1.62-11.19
		c0.95-0.9,1.53-2.19,2.47-3.11c2.68-2.63,2.01-3.92-1.51-4.52c-11.96-2.05-23.95-0.47-36.07-1.06
		C1184.41,997,1192.97,1001.4,1187.87,1009.85z M1538.75,989.74c1.71,7.14,10.75,11.65,5.43,20.27c9.29,0,18.1,0,27.43,0
		c-5.83-8.77,4.25-11.67,6.15-18.16C1564.9,988.03,1551.76,990.75,1538.75,989.74z M827.34,989.86c1.49,7.19,10.4,11.62,5.18,20.02
		c8.96,0,17.75,0,26.94,0c-5.32-8.61,4.43-11.62,6.36-18.08C853.13,988.37,840.26,990.84,827.34,989.86z M1103.79,992.03
		c-12.77-3.79-25.77-1.21-38.79-2.08c1.86,7.04,10.41,11.51,5.4,19.86c9.07,0,17.94,0,27.15,0
		C1092.26,1001.23,1101.86,998.33,1103.79,992.03z M984.04,991.81c-12.31-3.4-24.8-1.07-37.27-1.86
		c1.78,7.05,10.46,11.45,5.42,19.78c8.57,0,16.89,0,25.53,0C972.45,1001.08,982.23,998.29,984.04,991.81z"/>
	<path class="st0" d="M0.08,1302.97c3.09,1.7,6.62-0.22,9.69,1.06c4.51,1.88,8.51,4.64,11.43,8.63c1.34,1.82,2.79,2.48,5.01,2.41
		c4.99-0.15,10-0.03,14.99-0.03c5.64-0.01,11.34,1.17,14.81-5.77c1.84-3.69,6.67-4.77,10.98-4.99c19.65-1.01,39.31-0.62,58.96-0.46
		c5.63,0.05,9.66,4.29,13.07,8.39c1.83,2.2,3.62,2.95,6.32,2.87c4.99-0.16,10-0.15,14.99,0c6.1,0.18,11.83,0.7,15.71-6.02
		c2.17-3.77,7.11-4.66,11.59-4.85c19.32-0.85,38.65-0.53,57.97-0.4c5.68,0.04,9.74,4.2,13.15,8.26c1.98,2.35,3.85,3.1,6.73,3.03
		c6.83-0.17,13.66-0.13,20.49,0.02c2.56,0.06,4.19-0.48,5.6-2.94c2.84-4.97,7.55-7.52,13.19-7.84c19.81-1.11,39.64-0.69,59.46-0.49
		c5.57,0.06,9.61,4.37,13.02,8.49c1.69,2.03,3.29,2.81,5.85,2.75c6.83-0.16,13.67-0.18,20.49,0.04c2.69,0.08,4.18-0.76,5.54-3.09
		c2.8-4.78,7.33-7.34,12.77-7.66c19.97-1.2,39.97-0.72,59.96-0.52c5.36,0.05,9.38,4.23,12.64,8.21c1.95,2.38,3.85,3.09,6.73,3.02
		c6.83-0.17,13.66-0.14,20.49,0.02c2.56,0.06,4.18-0.5,5.59-2.95c2.85-4.96,7.55-7.52,13.2-7.84c19.81-1.11,39.64-0.69,59.46-0.48
		c5.56,0.06,9.6,4.37,13.02,8.49c1.68,2.02,3.28,2.81,5.87,2.75c7.66-0.16,15.33-0.04,22.99-0.03c1.81,0,3.48,0.23,4.64-1.92
		c3.77-6.98,10.2-9.06,17.65-9.11c12.66-0.08,25.32-0.19,37.98-0.34c3.82-0.04,7.67,0.05,11.45-0.43
		c8.21-1.05,14.23,2.79,19.13,8.57c1.97,2.33,3.8,3.18,6.7,3.06c4.66-0.21,9.33-0.14,13.99-0.01c5.6,0.15,10.86,0.77,14.34-5.69
		c2.03-3.77,6.87-4.92,11.39-5.17c19.31-1.07,38.64-0.69,57.96-0.61c6.09,0.02,10.36,4.31,14.03,8.62c1.84,2.16,3.59,2.97,6.29,2.85
		c4.16-0.18,8.33-0.07,12.49-0.02c5.71,0.07,11.22,0.9,14.89-5.74c2.18-3.95,7.41-4.81,12.02-5.07c19.31-1.09,38.64-0.62,57.96-0.72
		c6.96-0.03,11.87,4,16.08,8.85c1.73,1.99,3.35,2.83,5.9,2.7c3.66-0.18,7.33-0.08,10.99-0.02c5.85,0.09,11.52,0.99,15.36-5.77
		c2.33-4.11,7.75-4.82,12.53-5.08c18.98-1.02,37.98-0.52,56.96-0.71c6.99-0.07,12.01,3.72,16.22,8.56c1.99,2.3,3.86,3.12,6.75,3.03
		c6.33-0.18,12.66-0.13,18.99,0.01c2.51,0.06,4.23-0.37,5.68-2.82c3.1-5.24,8.08-7.72,14.12-8.06c19.31-1.09,38.64-0.72,57.96-0.62
		c6.27,0.03,10.59,4.51,14.44,8.91c1.6,1.83,3.05,2.65,5.44,2.56c4.83-0.16,9.67-0.2,14.49,0.01c5.69,0.26,10.86,0.5,14.33-5.74
		c1.91-3.44,6.34-4.81,10.46-5.03c20.13-1.08,40.28-1.2,60.42-0.31c5.6,0.25,9.6,4.39,13.05,8.49c1.67,1.99,3.24,2.85,5.85,2.79
		c7.66-0.17,15.33-0.13,22.99,0.02c2.41,0.05,3.95-0.54,5.22-2.76c3.07-5.36,8.07-7.82,14.09-8.11c19.48-0.95,38.98-0.61,58.46-0.42
		c5.81,0.06,9.87,4.5,13.43,8.71c1.57,1.86,3.07,2.59,5.45,2.54c7.16-0.13,14.33-0.16,21.49,0.04c2.66,0.07,4.15-0.73,5.52-3.08
		c2.79-4.77,7.33-7.35,12.77-7.67c19.97-1.19,39.97-0.72,59.96-0.51c5.36,0.06,9.39,4.21,12.64,8.21c1.94,2.39,3.87,3.09,6.74,3.02
		c6.49-0.17,13-0.13,19.49,0.02c2.26,0.05,3.65-0.59,4.8-2.6c3.17-5.55,8.3-8.01,14.5-8.29c19.31-0.89,38.65-0.56,57.97-0.41
		c5.85,0.05,9.88,4.44,13.51,8.58c1.55,1.77,2.91,2.76,5.37,2.7c7.33-0.17,14.66-0.15,21.99,0.02c2.49,0.06,3.83-0.79,5.09-2.93
		c2.92-4.93,7.56-7.54,13.2-7.86c19.81-1.12,39.64-0.69,59.46-0.49c5.58,0.06,9.61,4.36,13.04,8.46c1.68,2,3.24,2.85,5.84,2.79
		c7.66-0.17,15.33-0.14,22.99,0.02c2.42,0.05,3.93-0.57,5.21-2.76c3.1-5.33,8.07-7.82,14.09-8.11c19.48-0.95,38.98-0.61,58.46-0.42
		c5.8,0.06,9.87,4.48,13.43,8.71c1.56,1.85,3.07,2.59,5.46,2.54c7.33-0.14,14.66-0.08,21.99,0c1.95,0.02,3.4-0.23,4.49-2.2
		c3.62-6.57,9.71-8.72,16.79-8.82c9.49-0.14,18.99-0.2,28.48-0.39c1.58-0.03,3.34,0.69,4.75-0.7c0,4.33,0,8.67,0,13
		c-7.84,0-15.67,0-23.97,0c8.19,14.5,8.19,14.5,6.03,21c6.13,0,12.03,0,17.94,0c0,4,0,8,0,12c-8.82,0.27-17.63-0.01-26.46,0.61
		c-8.45,0.6-15.86-2.06-20.49-9.81c-1.14-1.91-2.61-2.19-4.57-2.18c-8.66,0.06-17.33,0.12-25.99-0.03c-2.63-0.05-4.31,0.7-5.66,3.03
		c-3.68,6.38-9.17,8.71-16.67,8.59c-14.64-0.22-29.3-0.67-43.95,0.41c-8.8,0.65-16.59-1.75-21.45-9.88
		c-1.16-1.95-2.68-2.12-4.59-2.11c-9.16,0.05-18.33,0.12-27.49-0.04c-2.66-0.05-4.32,0.75-5.66,3.04c-3.71,6.37-9.18,8.7-16.68,8.59
		c-14.64-0.22-29.3-0.67-43.95,0.4c-8.79,0.64-16.58-1.73-21.45-9.89c-0.99-1.67-2.27-2.12-4.1-2.11c-9,0.07-18,0.11-26.99-0.02
		c-2.3-0.03-3.71,0.73-4.83,2.68c-3.88,6.76-9.61,9.11-17.5,8.95c-14.47-0.29-28.97-0.69-43.45,0.4
		c-8.81,0.66-16.56-1.82-21.44-9.93c-1.02-1.7-2.3-2.08-4.11-2.07c-8.5,0.06-17,0.12-25.49-0.04c-2.37-0.04-3.69,0.94-4.77,2.8
		c-3.81,6.56-9.37,8.96-17.07,8.82c-14.64-0.25-29.3-0.64-43.95,0.4c-8.81,0.63-16.56-1.85-21.34-10.07c-1.16-2-2.86-1.91-4.71-1.91
		c-8.66,0.02-17.33,0.1-25.99-0.05c-2.48-0.04-4.02,0.74-5.24,2.85c-3.79,6.57-9.4,8.9-17.09,8.77c-14.64-0.25-29.3-0.65-43.95,0.41
		c-8.61,0.62-16.24-1.79-21.06-9.7c-1.11-1.83-2.47-2.33-4.5-2.31c-9.33,0.08-18.66,0.12-27.99-0.02c-2.47-0.04-4.01,0.73-5.25,2.85
		c-3.68,6.34-9.05,8.79-16.58,8.8c-14.8,0.02-29.63-0.67-44.43,0.59c-8.98,0.76-16.89-1.74-21.94-9.94
		c-1.05-1.7-2.33-2.02-4.12-2.01c-8.83,0.06-17.66,0.12-26.49-0.04c-2.36-0.04-3.62,0.88-4.73,2.76c-3.97,6.7-9.75,8.94-17.61,8.77
		c-14.13-0.29-28.29-0.78-42.43,0.45c-9.52,0.83-17.93-1.51-23.18-10.4c-0.98-1.66-2.37-1.51-3.86-1.51c-8.5,0-17,0.08-25.49-0.05
		c-2.27-0.04-3.75,0.62-4.86,2.59c-3.87,6.86-9.86,9.05-17.59,8.92c-14.48-0.23-28.96-0.66-43.45,0.42
		c-9.88,0.73-19.07-0.93-24.67-10.55c-0.83-1.43-2.13-1.34-3.47-1.34c-8.16,0.01-16.33,0.11-24.49-0.06
		c-2.4-0.05-3.64,0.98-4.72,2.83c-3.85,6.63-9.69,8.8-17.22,8.69c-14.64-0.21-29.3-0.65-43.95,0.43
		c-9.72,0.72-18.74-1.04-24.29-10.35c-0.99-1.66-2.36-1.55-3.85-1.55c-8.5,0-17,0.1-25.49-0.06c-2.37-0.05-3.66,0.9-4.75,2.76
		c-3.83,6.52-9.33,8.93-17.08,8.77c-14.13-0.29-28.29-0.81-42.43,0.44c-9.5,0.84-17.94-1.33-23.24-10.24
		c-0.8-1.34-1.79-1.7-3.25-1.69c-9.33,0.05-18.66,0.12-27.99-0.04c-2.29-0.04-3.3,1.16-4.24,2.76c-3.99,6.73-9.71,9.04-17.6,8.74
		c-14.3-0.55-28.63-0.78-42.95,0.26c-8.99,0.65-16.91-1.64-21.95-9.93c-0.87-1.44-1.9-2.08-3.61-2.07
		c-9.83,0.06-19.66,0.09-29.49-0.02c-2.21-0.03-3.35,1.01-4.31,2.69c-3.9,6.78-9.64,9.09-17.52,8.94
		c-14.47-0.28-28.97-0.67-43.45,0.39c-8.8,0.64-16.57-1.77-21.41-9.95c-1.02-1.72-2.33-2.05-4.12-2.04c-9,0.05-18,0.1-26.99-0.03
		c-2.32-0.03-3.66,0.81-4.79,2.73c-3.8,6.51-9.31,9.03-17.04,8.89c-14.64-0.26-29.3-0.67-43.95,0.4
		c-8.82,0.64-16.54-1.86-21.42-9.98c-0.89-1.48-1.96-2.03-3.63-2.02c-9,0.05-18,0.12-26.99-0.04c-2.48-0.04-3.58,1.28-4.64,3.04
		c-3.8,6.32-9.2,8.7-16.7,8.59c-14.64-0.21-29.3-0.67-43.95,0.41c-8.79,0.65-16.6-1.72-21.45-9.87c-1.16-1.95-2.69-2.13-4.6-2.12
		c-8.83,0.04-17.66,0.1-26.49-0.03c-2.3-0.03-3.74,0.73-4.84,2.66c-3.87,6.79-9.61,9.11-17.49,8.96
		c-14.47-0.28-28.97-0.68-43.45,0.39c-8.81,0.65-16.56-1.78-21.43-9.93c-1.01-1.69-2.31-2.08-4.12-2.07
		c-9.5,0.06-18.99,0.1-28.49-0.02c-2.28-0.03-3.73,0.7-4.84,2.66c-3.85,6.81-9.61,9.11-17.49,8.96
		c-14.47-0.28-28.97-0.67-43.45,0.39c-8.8,0.65-16.57-1.76-21.42-9.93c-1.01-1.7-2.32-2.07-4.12-2.06
		c-9.16,0.06-18.33,0.04-27.49,0.01c-1.6-0.01-2.89,0.26-3.72,1.86c-4.4,8.46-11.68,10.78-20.59,9.49
		C0.08,1333.63,0.08,1318.3,0.08,1302.97z M1419.48,1336.45c-5.68-8.71,4.33-11.87,6.27-18.34c-13.98-3.68-28-1.27-42.07-2
		c1.66,7.27,10.69,11.77,5.13,20.35C1399.2,1336.45,1409.11,1336.45,1419.48,1336.45z M707.7,1336.49
		c-2.02-3.46-2.69-6.41-0.41-9.31c1.03-1.31,2.21-2.49,3.22-3.81c3.92-5.12,3.89-5.36-2.29-6.43c-10.4-1.8-20.91-0.42-31.37-0.78
		c-1.69-0.06-3.55-0.46-5.19,0.61c7.21,13.36,7.21,13.36,5.91,19.72C687.38,1336.49,697.2,1336.49,707.7,1336.49z M1898.73,1318.05
		c-13.97-3.55-27.97-1.35-41.82-1.84c1.44,7.32,10.54,11.64,5.01,20.06c10.33,0,20.32,0,30.63,0
		C1887.11,1327.59,1896.72,1324.69,1898.73,1318.05z M203.13,1336.2c10.42,0,20.4,0,30.63,0c-5.54-8.8,4.73-11.71,6.1-18.16
		c-13.95-3.52-27.91-1.32-41.89-1.84C199.55,1323.41,208.51,1327.77,203.13,1336.2z M1778.97,1318.04
		c-13.63-3.47-27.15-1.26-40.72-1.98c2.04,7.25,10.73,11.8,5.37,20.4c9.82,0,19.26,0,29.12,0
		C1766.98,1327.76,1776.82,1324.74,1778.97,1318.04z M558.54,1336.43c9.96,0,19.39,0,29.45,0c-3.63-4.67-1.89-8.25,1.51-11.62
		c1.17-1.16,1.98-2.68,3.11-3.9c2.02-2.19,0.94-2.82-1.34-3.47c-5.05-1.45-10.18-1.35-15.34-1.33c-7.53,0.04-15.07,0.01-22.61,0.01
		C555.22,1323.24,563.87,1327.65,558.54,1336.43z M113.99,1336.43c-6.1-8.8,4.55-11.78,6.04-18.42
		c-13.49-3.45-27.02-1.23-40.83-1.95c7.95,14.86,7.95,14.86,5.98,20.38C94.65,1336.43,104.08,1336.43,113.99,1336.43z M1538,1336.48
		c-6.18-8.97,4.3-11.77,5.86-18.34c-13.42-3.76-27.01-1.26-40.58-2.09c2.24,7.3,10.57,11.87,5.47,20.43
		C1518.56,1336.48,1527.87,1336.48,1538,1336.48z M352.43,1336.52c-3.73-4.65-2.24-8.16,1.11-11.39c0.83-0.8,1.46-1.81,2.17-2.73
		c3.3-4.29,3.3-4.28-2.25-5.4c-8.73-1.77-17.56-0.52-26.34-0.86c-3.18-0.12-6.37-0.02-9.54-0.02c2.07,7.29,10.79,11.78,5.33,20.4
		C332.74,1336.52,342.04,1336.52,352.43,1336.52z M475.59,1318.18c-13.13-3.86-26.44-1.27-39.61-2.14
		c1.72,7.35,10.67,11.83,5.28,20.3c9.44,0,18.64,0,28.27,0C463.78,1327.54,473.99,1324.63,475.59,1318.18z M1627.02,1336.25
		c9.37,0,18.24,0,27.52,0c-5.72-8.83,4.64-11.72,6.02-18.13c-12.94-3.69-26.01-1.25-39.05-2.08
		C1623.42,1323.17,1632.28,1327.65,1627.02,1336.25z M791.97,1316.24c1.67,7.22,10.16,11.53,5.31,19.79c9.3,0,18.42,0,27.96,0
		c-4.87-8.44,4.74-11.55,6.4-17.81C818.41,1314.75,805.28,1317.09,791.97,1316.24z M1270.97,1335.86c9.15,0,18.15,0,27.47,0
		c-4.77-8.63,5.1-11.37,6.41-17.72c-13.07-3.33-26.27-1.12-39.42-1.85C1267.27,1323.33,1275.58,1327.63,1270.97,1335.86z
		 M1148.1,1316.28c1.48,7.06,10.2,11.43,5.36,19.66c9.01,0,17.75,0,26.81,0c-4.87-8.55,4.76-11.44,6.42-17.71
		C1173.88,1314.71,1160.97,1317.08,1148.1,1316.28z M942.12,1336.02c-1.45-3.36-2.11-6.46,0.55-9.35c2.29-2.5,4.6-5.03,6.18-8.58
		c-13.1-3.11-25.91-1.26-38.61-1.66c1.82,7.03,9.97,11.34,5.42,19.6C924.59,1336.02,933.2,1336.02,942.12,1336.02z M1067.71,1318.27
		c-13.21-3.32-25.59-1.32-38.04-1.97c1.88,7.07,10.29,11.45,5.53,19.75c8.53,0,16.66,0,25.12,0c-1.46-3.35-2.09-6.43,0.57-9.36
		C1063.09,1324.26,1065.03,1321.6,1067.71,1318.27z"/>
	<path class="st0" d="M1999.92,697.03c-1.42-1.35-3.18-0.74-4.76-0.71c-13.48,0.26-26.97-0.49-40.46,0.55
		c-8.84,0.69-16.55-1.84-21.44-9.93c-1.04-1.72-2.31-2.06-4.11-2.05c-8.66,0.06-17.33,0.13-25.99-0.04
		c-2.57-0.05-3.97,0.98-5.17,3.01c-3.74,6.36-9.15,8.74-16.67,8.61c-14.31-0.25-28.64-0.73-42.95,0.39
		c-9.36,0.73-17.63-1.42-22.75-10.23c-1.06-1.83-2.6-1.72-4.27-1.72c-8.67,0.02-17.33,0.11-25.99-0.05
		c-2.64-0.05-4.29,0.7-5.64,3.03c-3.69,6.37-9.16,8.72-16.68,8.58c-14.31-0.26-28.64-0.74-42.95,0.39
		c-9.38,0.74-17.63-1.48-22.75-10.24c-1.11-1.89-2.64-1.69-4.28-1.69c-9.17,0-18.33,0.1-27.49-0.06c-2.64-0.05-4.31,0.69-5.66,3.01
		c-3.7,6.36-9.14,8.74-16.67,8.6c-14.31-0.26-28.64-0.73-42.95,0.39c-9.36,0.73-17.63-1.43-22.74-10.24
		c-1.07-1.85-2.62-1.71-4.28-1.7c-8.83,0.01-17.66,0.08-26.49-0.05c-2.28-0.03-3.73,0.66-4.84,2.63c-3.96,7.02-9.94,9.16-17.98,8.98
		c-14.13-0.33-28.3-0.7-42.45,0.4c-9,0.7-16.93-1.56-21.98-9.84c-1.01-1.65-2.21-2.16-4.06-2.14c-8.5,0.08-17,0.12-25.49-0.02
		c-2.34-0.04-3.7,0.81-4.8,2.73c-3.88,6.81-9.67,9.04-17.53,8.88c-14.3-0.29-28.64-0.69-42.95,0.4c-9,0.69-16.93-1.59-21.89-9.96
		c-1.01-1.71-2.34-2.02-4.13-2.01c-9,0.06-18,0.12-26.99-0.03c-2.36-0.04-3.68,0.86-4.76,2.76c-3.97,7.04-10.17,9.3-18.03,9.19
		c-14.32-0.21-28.65-0.02-42.98,0.29c-9.92,0.21-19.1-0.88-24.77-10.45c-0.96-1.62-2.37-1.54-3.88-1.54c-8.5,0.01-17,0.1-25.49-0.06
		c-2.35-0.04-3.67,0.86-4.78,2.75c-4.05,6.89-10,9.25-18.04,9c-13.81-0.44-27.65-0.1-41.47,0.32c-9.7,0.3-18.33-1.21-23.72-10.37
		c-0.93-1.58-2.24-1.66-3.8-1.65c-8.83,0.04-17.67,0.13-26.49-0.05c-2.41-0.05-3.62,0.95-4.72,2.79
		c-4.09,6.85-10.04,9.22-18.07,8.96c-13.81-0.44-27.65-0.12-41.47,0.32c-9.72,0.3-18.32-1.26-23.74-10.36
		c-0.97-1.62-2.26-1.66-3.8-1.65c-8.5,0.02-17,0.13-25.49-0.06c-2.59-0.06-3.95,1.04-5.13,3.05c-3.75,6.41-9.49,8.8-16.78,8.7
		c-14.99-0.19-29.99-0.44-44.98,0.26c-9.63,0.45-18.35-1.27-23.72-10.48c-0.96-1.65-2.42-1.47-3.9-1.47
		c-7.83,0-15.67,0.1-23.49-0.06c-2.47-0.05-4.03,0.68-5.25,2.82c-3.89,6.85-10.01,9.02-17.66,8.93
		c-14.32-0.18-28.66-0.04-42.98,0.29c-10.11,0.23-19.42-0.9-25.14-10.7c-0.85-1.45-2.18-1.28-3.5-1.28c-8.5,0-17,0.06-25.49-0.04
		c-2.03-0.02-3.36,0.5-4.48,2.31c-4.24,6.88-10.26,9.33-18.53,9.1c-14.13-0.39-28.3-0.7-42.45,0.39c-9,0.69-16.93-1.64-21.86-10.03
		c-1.03-1.75-2.4-1.96-4.17-1.95c-9,0.05-18,0.12-26.99-0.04c-2.39-0.04-3.64,0.97-4.73,2.82c-3.83,6.53-9.37,8.94-17.09,8.79
		c-14.3-0.28-28.64-0.73-42.95,0.4c-9.19,0.72-17.28-1.52-22.38-10.02c-1.06-1.76-2.41-1.95-4.16-1.94c-9.5,0.04-19,0.1-28.49-0.04
		c-2.37-0.04-3.65,0.92-4.75,2.8c-3.81,6.55-9.35,8.96-17.07,8.81c-14.3-0.28-28.64-0.71-42.95,0.39
		c-9.17,0.71-17.3-1.45-22.36-10.02c-1.05-1.77-2.41-1.94-4.15-1.94c-9,0.04-18,0.12-26.99-0.05c-2.4-0.04-3.62,0.98-4.71,2.83
		c-3.85,6.5-9.37,8.94-17.1,8.79c-14.3-0.28-28.64-0.73-42.95,0.39c-9.18,0.72-17.29-1.49-22.37-10.02
		c-1.06-1.78-2.43-1.95-4.17-1.94c-8.66,0.04-17.33,0.1-25.99-0.04c-2.31-0.04-3.72,0.74-4.83,2.67c-3.87,6.79-9.62,9.09-17.51,8.93
		c-14.3-0.3-28.64-0.7-42.95,0.4c-8.99,0.69-16.94-1.54-21.92-9.91c-1.01-1.69-2.29-2.08-4.11-2.06c-9,0.06-18,0.12-26.99-0.03
		c-2.34-0.04-3.7,0.81-4.8,2.71c-3.89,6.79-9.65,9.05-17.53,8.89c-14.3-0.3-28.64-0.7-42.95,0.4c-9,0.69-16.93-1.61-21.92-9.94
		c-1.02-1.71-2.31-2.05-4.11-2.04c-9.5,0.06-19.01,0.32-28.49-0.14c-3.21-0.16-3.79,2.72-6.05,3.27c0-10,0-20,0-30
		c3.32,4.72,8.19,4.46,13.16,4.31c5.99-0.18,12-0.13,18,0.04c2.27,0.06,3.65-0.6,4.8-2.62c2.74-4.82,7.06-7.56,12.55-7.98
		c20.13-1.54,40.31-0.8,60.46-0.66c5.31,0.04,9.34,4.25,12.65,8.21c1.8,2.16,3.47,3.07,6.24,3.01c7-0.17,14-0.14,21,0.03
		c2.59,0.06,4.2-0.56,5.6-2.98c2.77-4.76,7.23-7.29,12.74-7.68c19.97-1.42,39.98-0.74,59.96-0.6c5.32,0.04,9.4,4.17,12.66,8.18
		c1.94,2.39,3.86,3.16,6.75,3.04c4.49-0.19,9-0.11,13.5-0.01c5.6,0.12,11.03,0.83,14.32-5.77c1.6-3.2,5.74-4.47,9.53-4.76
		c20.3-1.56,40.64-0.83,60.96-0.65c5.25,0.05,9.35,4.28,12.58,8.33c1.82,2.28,3.63,2.94,6.31,2.85c4.83-0.15,9.67-0.1,14.5,0
		c5.59,0.12,10.8,0.77,14.38-5.68c2.53-4.55,8.34-5.2,13.44-5.26c18.66-0.23,37.32-0.45,55.98-0.36c5.93,0.03,10.05,4.21,13.6,8.39
		c1.85,2.17,3.58,2.96,6.3,2.92c7.66-0.13,15.33-0.1,23,0.04c2.25,0.04,3.66-0.55,4.82-2.58c2.85-4.99,7.33-7.67,13.03-8.08
		c19.97-1.42,39.98-0.74,59.96-0.61c5.34,0.04,9.37,4.23,12.66,8.19c1.95,2.36,3.84,3.11,6.72,3.04c6.83-0.17,13.67-0.12,20.5,0.02
		c2.55,0.06,4.21-0.46,5.63-2.92c2.74-4.77,7.2-7.33,12.71-7.72c19.97-1.43,39.98-0.76,59.96-0.61c5.48,0.04,9.53,4.44,13.15,8.35
		c1.59,1.72,2.94,2.71,5.39,2.65c6.83-0.17,13.66-0.07,20.5-0.02c1.87,0.01,3.44,0.03,4.57-2.04c3.38-6.21,9.24-8.65,15.85-8.76
		c19.82-0.32,39.66-0.41,59.48-0.31c5.94,0.03,10,4.26,13.67,8.32c1.73,1.91,3.21,2.89,5.82,2.82c6.33-0.19,12.66-0.05,19-0.04
		c1.64,0,3.2,0.22,4.23-1.72c3.65-6.84,10.03-9.06,17.18-9.16c19.16-0.26,38.33-0.31,57.49-0.32c6.42,0,10.73,4.18,14.61,8.54
		c1.75,1.96,3.34,2.81,5.9,2.69c3.99-0.19,8-0.03,12-0.04c6.1-0.03,12.23,1.32,16.26-5.98c2.24-4.06,7.77-4.87,12.57-4.92
		c19-0.17,37.99-0.4,56.99-0.28c6.13,0.04,10.24,4.47,13.96,8.72c1.62,1.85,3.09,2.58,5.44,2.5c4.49-0.16,9-0.16,13.5,0
		c6.11,0.22,11.75,0.59,15.76-5.99c2.46-4.04,7.79-4.9,12.58-4.95c19-0.18,37.99-0.41,56.99-0.28c6.12,0.04,10.24,4.44,13.98,8.7
		c1.6,1.83,3.08,2.57,5.46,2.52c6.83-0.14,13.66-0.06,20.5-0.02c1.86,0.01,3.45,0.06,4.59-2.03c3.51-6.39,9.56-8.72,16.35-8.82
		c19.66-0.28,39.32-0.38,58.98-0.27c5.95,0.03,10.08,4.2,13.66,8.32c1.99,2.28,3.82,3.13,6.72,3.05c6.83-0.18,13.67-0.12,20.5,0.02
		c2.53,0.05,4.23-0.42,5.64-2.89c2.73-4.78,7.19-7.35,12.7-7.74c19.97-1.44,39.98-0.76,59.96-0.61c5.52,0.04,9.62,4.35,13.01,8.5
		c1.68,2.06,3.33,2.78,5.88,2.72c6.5-0.15,13-0.13,19.5,0.03c2.57,0.07,4.27-0.5,5.66-2.9c2.87-4.97,7.51-7.42,13.19-7.8
		c19.81-1.32,39.65-0.71,59.46-0.56c5.54,0.04,9.6,4.39,13.02,8.5c1.7,2.05,3.32,2.78,5.86,2.73c7-0.14,14-0.11,21,0.03
		c2.51,0.05,4.26-0.34,5.68-2.83c2.83-4.97,7.46-7.47,13.16-7.85c19.81-1.34,39.64-0.7,59.46-0.57c5.55,0.04,9.61,4.35,13.05,8.45
		c1.68,2,3.25,2.85,5.85,2.79c7.66-0.16,15.33-0.13,23,0.03c2.43,0.05,3.95-0.57,5.23-2.75c3-5.13,7.74-7.62,13.62-8
		c19.64-1.24,39.31-0.65,58.97-0.54c5.6,0.03,9.68,4.27,13.07,8.38c1.84,2.23,3.64,2.94,6.32,2.85c4.83-0.15,9.67-0.21,14.49,0.03
		c5.72,0.29,10.91,0.47,14.32-5.77c1.73-3.16,5.74-4.49,9.54-4.79c20.3-1.56,40.64-0.86,60.96-0.65c5.42,0.06,9.55,4.46,12.93,8.64
		c1.55,1.91,3.09,2.58,5.47,2.53c6.83-0.13,13.67-0.13,20.5,0.04c2.57,0.07,4.29-0.48,5.68-2.89c2.88-4.98,7.5-7.43,13.18-7.81
		c18.64-1.25,37.3-0.58,55.96-0.64C1999.92,666.37,1999.92,681.7,1999.92,697.03z M534.48,663.48c2.29,7.26,10.62,11.81,5.58,20.14
		c10.26,0,20.12,0,30.4,0c-2.62-4.33-2.05-7.89,1.44-10.98c0.61-0.54,1.03-1.3,1.54-1.96c4.09-5.25,4.13-5.52-2.73-6.49
		C558.83,662.5,546.88,663.79,534.48,663.48z M1725.17,683.64c10.01,0,20,0,30.36,0c-5.71-8.73,4.44-11.71,6.06-18.25
		c-13.97-3.61-27.95-1.33-42.33-1.91C1727.16,678.36,1727.16,678.36,1725.17,683.64z M65.94,683.73c10.52,0,20.45,0,31.01,0
		c-3.41-4.46-2.12-8.01,1.27-11.31c1.3-1.26,2.19-2.93,3.41-4.3c1.6-1.8,1.34-2.56-1.06-3.25c-5.21-1.51-10.5-1.45-15.83-1.42
		c-7.93,0.04-15.87,0.01-23.83,0.01C62.42,670.7,71.47,675.06,65.94,683.73z M215.08,683.79c-3.38-4.58-1.97-8.24,1.58-11.59
		c1.07-1.02,1.76-2.43,2.79-3.51c2.27-2.37,1.66-3.41-1.42-4.03c-12.48-2.51-25-0.58-37.96-1.32c8.21,14.27,8.21,14.27,6.12,20.44
		C195.67,683.79,205.11,683.79,215.08,683.79z M659.72,683.74c9.83,0,19.26,0,29.41,0c-3.64-4.46-2.24-8.01,1.15-11.28
		c0.71-0.69,1.25-1.56,1.86-2.34c3.66-4.7,3.69-4.86-2.39-5.87c-10.58-1.76-21.26-0.43-31.89-0.76c-1.17-0.04-2.65-0.68-3.55,0.8
		C662.49,677.62,662.49,677.62,659.72,683.74z M1400.82,683.78c-3.31-4.61-1.9-8.29,1.66-11.64c0.96-0.9,1.56-2.18,2.5-3.11
		c2.94-2.91,1.51-3.91-1.73-4.51c-12.21-2.24-24.48-0.45-36.92-1.16c1.92,7.38,10.81,11.82,5.23,20.43 M1606.5,683.71
		c9.99,0,19.41,0,29.32,0c-3.18-4.46-2.08-8.05,1.39-11.3c0.96-0.9,1.58-2.16,2.51-3.1c2.77-2.79,2.13-4.19-1.65-4.84
		c-12.2-2.12-24.45-0.47-36.8-1.05C1602.96,670.55,1612.06,675.09,1606.5,683.71z M1873.94,683.73c-3.53-4.68-1.86-8.29,1.61-11.64
		c1.06-1.03,1.76-2.42,2.77-3.52c1.8-1.96,2.11-3.12-1.1-3.8c-12.63-2.7-25.3-0.68-37.91-1.34c2.1,7.22,10.65,11.75,5.44,20.3
		C1854.54,683.73,1863.96,683.73,1873.94,683.73z M450.46,683.84c-2.37-6.01-2.28-6.51,1.77-11.4c0.85-1.03,1.58-2.16,2.5-3.11
		c2.67-2.76,2.18-4.21-1.66-4.87c-12.2-2.1-24.44-0.48-37.32-1.06c2.23,3.81,3.83,7.05,5.91,9.97c2.49,3.51,1.98,6.88-0.08,10.47
		C431.4,683.84,440.72,683.84,450.46,683.84z M1991.34,683.8c-2.85-4.59-2.1-8.07,1.31-11.22c1.2-1.11,1.96-2.69,3.1-3.89
		c2.26-2.4,1.56-3.33-1.43-4.04c-9.37-2.23-18.86-0.78-28.28-1.18c-2.85-0.12-5.71-0.02-8.46-0.02c2.11,7.25,10.71,11.78,5.39,20.35
		C1972.45,683.8,1981.58,683.8,1991.34,683.8z M304.03,683.76c9.7,0,18.81,0,28.29,0c-2.09-3.86-2.46-7.39,0.91-10.54
		c1.08-1.01,1.93-2.28,2.84-3.46c3.31-4.27,3.31-4.53-2.16-5.44c-11.65-1.92-23.37-0.39-35.16-0.94
		C300.51,670.51,309.51,674.98,304.03,683.76z M1484.56,663.32c1.46,7.12,10.99,11.8,5.47,20.3c9.2,0,18.06,0,27.39,0
		c-3.43-5.13-0.8-8.48,2.24-12.18c5.59-6.81,5.29-6-2.52-7.3C1506.44,662.36,1495.59,663.96,1484.56,663.32z M1167.86,665.46
		c-13.29-3.04-26.38-1.04-39.46-1.68c2.13,7.08,10.27,11.41,5.37,19.71c9.41,0,18.43,0,27.95,0
		C1156.17,674.84,1166,672.07,1167.86,665.46z M1279.22,683.53c-3.14-4.76-1.36-8.35,2.04-11.65c1.06-1.03,1.76-2.43,2.76-3.53
		c1.77-1.95,1.56-2.8-1.16-3.53c-4.94-1.32-9.91-0.94-14.88-0.98c-7.02-0.06-14.04-0.02-21.17-0.02c1.88,7.1,10.21,11.46,5.19,19.71
		C1261.14,683.53,1269.89,683.53,1279.22,683.53z M1049.74,665.58c-13.09-3.3-25.91-1.04-38.81-1.85c1.79,7.1,10.51,11.51,5.29,19.8
		c9.09,0,17.82,0,27.03,0C1038.34,675.05,1047.29,671.99,1049.74,665.58z M805.4,683.58c-2.75-4.65-1.69-8.08,1.61-11.18
		c1.2-1.12,1.97-2.69,3.1-3.91c2.03-2.2,1.62-3.18-1.33-3.7c-11.83-2.06-23.68-0.45-35.65-1.02c1.92,7.08,10.4,11.6,5.27,19.8
		C787.31,683.58,795.96,683.58,805.4,683.58z M923.53,683.49c-3.06-4.82-1.22-8.39,2.19-11.64c0.95-0.91,1.57-2.16,2.47-3.12
		c2.05-2.19,2.13-3.38-1.31-3.98c-11.32-1.95-22.64-0.42-34.19-0.98c2.17,7.11,10.14,11.66,5.49,19.71
		C906.7,683.49,914.81,683.49,923.53,683.49z"/>
</g>
</svg>
